<?xml version="1.0" standalone="no"?>
<!DOCTYPE svg PUBLIC "-//W3C//DTD SVG 20010904//EN"
 "http://www.w3.org/TR/2001/REC-SVG-20010904/DTD/svg10.dtd">
<svg version="1.0" xmlns="http://www.w3.org/2000/svg"
 width="640.000000pt" height="1280.000000pt" viewBox="0 0 640.000000 1280.000000"
 preserveAspectRatio="xMidYMid meet">
<g transform="translate(0.000000,1280.000000) scale(0.100000,-0.100000)"
fill="#000000" stroke="none">
<path d="M3218 12768 c-32 -29 -40 -46 -67 -153 -143 -556 -201 -1011 -187
-1465 10 -347 45 -608 147 -1110 118 -583 147 -750 181 -1045 20 -171 16 -714
-5 -900 -24 -200 -70 -466 -113 -651 -39 -168 -37 -192 15 -219 36 -18 71 -12
99 18 30 32 94 319 141 627 40 265 54 493 48 790 -8 405 -37 624 -171 1280
-116 570 -147 774 -167 1096 -28 464 32 982 176 1530 19 73 35 139 35 149 0
20 -65 85 -84 85 -7 0 -29 -15 -48 -32z"/>
<path d="M2613 7836 c-36 -31 -35 -73 5 -189 40 -116 79 -178 183 -291 48 -52
106 -118 129 -147 50 -64 81 -83 120 -74 39 9 64 40 64 79 0 40 -43 101 -172
242 -104 114 -132 159 -173 282 -32 97 -53 122 -101 122 -15 0 -39 -11 -55
-24z"/>
<path d="M3445 7293 c-49 -25 -125 -74 -205 -131 -116 -83 -180 -111 -290
-127 -71 -10 -109 -25 -125 -48 -22 -32 -19 -74 10 -102 31 -32 96 -33 213 -5
107 26 169 55 281 135 49 35 122 82 161 106 39 23 75 50 80 60 18 32 11 79
-15 104 -28 29 -66 32 -110 8z"/>
<path d="M3399 6957 c-41 -24 -115 -72 -164 -107 -105 -76 -169 -103 -290
-124 -75 -13 -94 -20 -114 -43 -18 -21 -22 -34 -17 -62 9 -58 38 -74 121 -68
148 12 260 57 412 165 54 38 124 84 156 102 63 35 77 53 77 100 0 40 -39 80
-77 80 -16 0 -62 -19 -104 -43z"/>
<path d="M3395 6647 c-39 -24 -114 -73 -168 -111 -107 -75 -165 -99 -289 -120
-67 -12 -87 -20 -105 -41 -27 -30 -29 -55 -8 -94 24 -47 64 -52 192 -25 122
25 179 51 323 149 74 51 150 100 168 109 54 28 72 52 72 95 0 31 -6 44 -26 60
-40 32 -80 26 -159 -22z"/>
<path d="M3397 6341 c-37 -22 -105 -67 -152 -101 -109 -79 -172 -107 -292
-130 -80 -15 -102 -24 -120 -45 -32 -36 -29 -71 8 -107 29 -30 33 -30 92 -24
154 16 258 56 396 154 53 38 121 83 151 101 83 50 100 69 100 111 0 25 -7 43
-23 58 -36 33 -81 28 -160 -17z"/>
<path d="M3425 6045 c-38 -19 -113 -67 -169 -107 -124 -88 -177 -112 -286
-133 -115 -22 -136 -32 -151 -67 -15 -38 -4 -74 33 -101 26 -19 32 -20 112 -8
108 16 230 58 292 101 27 19 99 66 159 106 164 109 165 110 165 153 0 26 -7
44 -22 58 -40 36 -61 36 -133 -2z"/>
<path d="M3445 5749 c-68 -36 -107 -61 -205 -130 -118 -84 -162 -103 -292
-127 -72 -14 -105 -25 -115 -38 -34 -47 -25 -99 23 -130 25 -17 31 -17 140 3
137 26 212 59 343 152 53 37 119 80 146 96 77 44 95 63 95 104 -1 43 -17 66
-54 81 -36 13 -35 13 -81 -11z"/>
<path d="M3435 5434 c-48 -25 -114 -67 -253 -162 -74 -50 -132 -72 -255 -93
-80 -13 -106 -31 -113 -80 -5 -29 -1 -41 19 -65 23 -27 30 -29 84 -27 77 3
204 36 278 73 33 16 98 57 145 90 47 34 115 79 152 101 71 42 88 62 88 103 0
38 -10 55 -41 71 -38 20 -48 19 -104 -11z"/>
<path d="M3406 5110 c-37 -22 -110 -69 -162 -106 -117 -81 -179 -110 -269
-124 -38 -6 -85 -16 -102 -22 -64 -19 -83 -89 -38 -133 29 -30 91 -33 195 -10
36 8 73 14 82 15 25 0 -125 -320 -509 -1081 -348 -690 -411 -824 -528 -1114
-118 -293 -190 -534 -236 -790 -32 -178 -33 -505 -2 -660 42 -205 110 -372
221 -542 158 -240 351 -379 645 -464 168 -49 411 -84 533 -76 345 21 669 122
872 271 212 157 394 453 458 746 28 128 26 388 -4 535 -51 245 -155 510 -363
920 -75 149 -210 416 -301 595 -299 590 -458 982 -584 1438 -25 92 -50 177
-56 189 -6 13 -26 28 -45 35 -18 7 -32 15 -31 19 2 4 82 59 178 122 96 64 185
125 198 136 49 45 11 141 -55 141 -16 0 -59 -18 -97 -40z m-157 -970 c148
-432 253 -669 583 -1320 375 -737 429 -853 501 -1076 64 -197 81 -299 80 -479
0 -140 -3 -172 -26 -258 -51 -191 -176 -407 -307 -531 -377 -355 -1212 -396
-1655 -81 -77 54 -148 130 -212 225 -302 449 -308 989 -19 1748 102 270 226
538 479 1037 131 259 292 581 359 718 67 136 126 246 131 244 5 -1 44 -104 86
-227z"/>
</g>
</svg>
